<svg width="300" height="200" style="fill: rgb(245, 241, 234);"><rect width="290" height="190" rx="25" ry="25" x="5" y="5" style="stroke: rgb(155, 153, 149); fill: rgb(245, 241, 234); stroke-width: 3;"></rect><g><g transform="translate(150, 160)"><path class="arc chart-color1" d="M-142,1.7389984547892416e-14A142,142,0,0,1,-126.52292643474824,-64.46665096301562L-108.70279595098089,-55.386840968224696A122,122,0,0,0,-122,1.494069094959771e-14Z" style="fill: rgb(0, 172, 0);"></path><path class="arc chart-color2" d="M-126.52292643474824,-64.46665096301562A142,142,0,0,1,142,-3.477996909578483e-14L122,-2.988138189919542e-14A122,122,0,0,0,-108.70279595098089,-55.386840968224696Z" style="fill: rgb(225, 0, 0);"></path><circle class="needle-center" cx="0" cy="0" r="25" style="fill: rgb(225, 0, 0);"></circle><path class="needle" d="M -15.322676341324412 19.75387530939226 L -93.1606033807995 -70.78207384447964 L -91.72642477850711 -72.63100575754736 L 15.322676341324406 -19.753875309392264" style="fill: rgb(225, 0, 0);"></path><text class="needle-text" text-anchor="middle" font-size="16pt" y="10" style="fill: rgb(255, 255, 0);">21%</text></g></g></svg>